<svg id="visual" viewBox="0 0 900 50" width="900" height="50" xmlns="http://www.w3.org/2000/svg" xmlns:xlink="http://www.w3.org/1999/xlink" version="1.1"><rect x="0" y="0" width="900" height="50" fill="#5a298b"></rect><path d="M0 31L4.8 28.7C9.7 26.3 19.3 21.7 29 19.5C38.7 17.3 48.3 17.7 58 20C67.7 22.3 77.3 26.7 87 26.5C96.7 26.3 106.3 21.7 116 22.5C125.7 23.3 135.3 29.7 145 31.2C154.7 32.7 164.3 29.3 174 26.8C183.7 24.3 193.3 22.7 203 22C212.7 21.3 222.3 21.7 232 20.5C241.7 19.3 251.3 16.7 261 18.3C270.7 20 280.3 26 290 26.2C299.7 26.3 309.3 20.7 319 17.7C328.7 14.7 338.3 14.3 348 14.8C357.7 15.3 367.3 16.7 377 19.2C386.7 21.7 396.3 25.3 406 24.5C415.7 23.7 425.3 18.3 435.2 16.2C445 14 455 15 464.8 18C474.7 21 484.3 26 494 27.5C503.7 29 513.3 27 523 24C532.7 21 542.3 17 552 18.8C561.7 20.7 571.3 28.3 581 29.3C590.7 30.3 600.3 24.7 610 23C619.7 21.3 629.3 23.7 639 25.8C648.7 28 658.3 30 668 30C677.7 30 687.3 28 697 25.7C706.7 23.3 716.3 20.7 726 21C735.7 21.3 745.3 24.7 755 25.8C764.7 27 774.3 26 784 26.8C793.7 27.7 803.3 30.3 813 28.8C822.7 27.3 832.3 21.7 842 19.7C851.7 17.7 861.3 19.3 871 21.8C880.7 24.3 890.3 27.7 895.2 29.3L900 31L900 51L895.2 51C890.3 51 880.7 51 871 51C861.3 51 851.7 51 842 51C832.3 51 822.7 51 813 51C803.3 51 793.7 51 784 51C774.3 51 764.7 51 755 51C745.3 51 735.7 51 726 51C716.3 51 706.7 51 697 51C687.3 51 677.7 51 668 51C658.3 51 648.7 51 639 51C629.3 51 619.7 51 610 51C600.3 51 590.7 51 581 51C571.3 51 561.7 51 552 51C542.3 51 532.7 51 523 51C513.3 51 503.7 51 494 51C484.3 51 474.7 51 464.8 51C455 51 445 51 435.2 51C425.3 51 415.7 51 406 51C396.3 51 386.7 51 377 51C367.3 51 357.7 51 348 51C338.3 51 328.7 51 319 51C309.3 51 299.7 51 290 51C280.3 51 270.7 51 261 51C251.3 51 241.7 51 232 51C222.3 51 212.7 51 203 51C193.3 51 183.7 51 174 51C164.3 51 154.7 51 145 51C135.3 51 125.7 51 116 51C106.3 51 96.7 51 87 51C77.3 51 67.7 51 58 51C48.3 51 38.7 51 29 51C19.3 51 9.7 51 4.8 51L0 51Z" fill="#ffffff" stroke-linecap="round" stroke-linejoin="miter"></path></svg>